# xmcd
#
# Track frame offsets:
#	150
#	10805
#	22030
#	32785
#	45998
#	62285
#	77805
#	93588
#	110740
#	124550
#	140018
#	155825
#	173220
#	190990
#
# Disc length: 2718 seconds
#
# Revision: 3
# Processed by: cddbd v1.5.2PL0 Copyright (c) Steve Scherf et al.
# Submitted via: audiograbber 1.83.01
#
DISCID=b80a9c0e
DTITLE=Various Artist - A Taste Of Country
DYEAR=1989
DGENRE=Country
TTITLE0=Buck Owens - Hot Dog
TTITLE1=Mel McDaniel - Walk That Way
TTITLE2=Barbara Mandrell - I'll Be Your
TTITLE3=Marie Osmond - I'm In Love And He's In Dallas
TTITLE4=Sawyer Brown - It Wasn't His Child
TTITLE5=Tanya Tucker - Highway Robbery
TTITLE6=Specs Hildebrand and Living Room Band - Home
TTITLE7=Don Williams - Old Coyote
TTITLE8=T. Graham Brown - Come As You Were
TTITLE9=Tom Wopat - Hey Little Sister
TTITLE10=David Slater - I'm Still Your Fool
TTITLE11=Dan Seals - Big Wheels In The Moonlight
TTITLE12=Anne Murray - Slow Passin' Time
TTITLE13=Don McLean - Eventually
EXTD=EMI - Capitol Record Inc.
EXTT0=
EXTT1=
EXTT2=
EXTT3=
EXTT4=
EXTT5=
EXTT6=
EXTT7=
EXTT8=
EXTT9=
EXTT10=
EXTT11=
EXTT12=
EXTT13=
PLAYORDER=
